<svg xmlns="http://www.w3.org/2000/svg" viewBox="0 0 64 64">
  <rect width="64" height="64" rx="16" fill="#0d1723"/>
  <path d="M31.5 38.5C19.8 35.7 12.9 24 13.7 10.5c12.4 3.5 20.2 15.2 17.8 28Z" fill="url(#left)"/>
  <path d="M32.5 38.5C44.2 35.7 51.1 24 50.3 10.5c-12.4 3.5-20.2 15.2-17.8 28Z" fill="url(#right)"/>
  <path d="M31.9 43.4c-4.2-5.4-7.4-11.4-9.2-18.3 4.2 5 7.5 10.9 9.2 18.3Z" fill="#fff7ed" opacity=".92"/>
  <path d="M32.1 43.4c4.2-5.4 7.4-11.4 9.2-18.3-4.2 5-7.5 10.9-9.2 18.3Z" fill="#fff7ed" opacity=".92"/>
  <defs>
    <linearGradient id="left" x1="14" x2="32" y1="10" y2="39" gradientUnits="userSpaceOnUse">
      <stop stop-color="#fb923c"/>
      <stop offset=".55" stop-color="#f97316"/>
      <stop offset="1" stop-color="#7c2d12"/>
    </linearGradient>
    <linearGradient id="right" x1="50" x2="32" y1="10" y2="39" gradientUnits="userSpaceOnUse">
      <stop stop-color="#fbbf24"/>
      <stop offset=".52" stop-color="#f97316"/>
      <stop offset="1" stop-color="#7c2d12"/>
    </linearGradient>
  </defs>
</svg>